<?xml version="1.0" encoding="utf-8"?>
<!-- Generator: Adobe Illustrator 27.5.0, SVG Export Plug-In . SVG Version: 6.00 Build 0)  -->
<svg version="1.1" id="katman_1" xmlns="http://www.w3.org/2000/svg" xmlns:xlink="http://www.w3.org/1999/xlink" x="0px" y="0px"
	 viewBox="0 0 841.89 595.28" style="enable-background:new 0 0 841.89 595.28;" xml:space="preserve">
<style type="text/css">
	.st0{fill:#CFB991;}
	.st1{fill:#1D1D1B;}
</style>
<g>
	<path class="st0" d="M274.12,307.26c-2.24,21.35-10.65,41.58-24.2,58.24c-0.23,0.32-0.68,0.39-0.99,0.16
		c-0.27-0.2-0.37-0.56-0.23-0.87c5.92-14.64,13.17-47.42,7.47-74.58c-0.06-0.27,0.06-0.54,0.29-0.68
		c4.98-3.06,10.78-6.95,15.61-10.22c0.3-0.2,0.7-0.12,0.9,0.18c0.05,0.08,0.09,0.16,0.1,0.25
		C274.61,288.83,274.97,298.08,274.12,307.26z M238.44,300.58c-0.05-0.36-0.38-0.6-0.73-0.56c-0.07,0.01-0.15,0.03-0.21,0.07
		c-11.46,6.07-23.23,11.53-35.27,16.35c-0.31,0.12-0.47,0.45-0.39,0.76c6.48,24.17,10.35,48.97,11.54,73.97
		c0.01,0.42,0.35,0.75,0.77,0.74c0.21,0,0.42-0.1,0.56-0.26c0.47-0.56,0.95-1.14,1.42-1.71c17.95-22.11,25.75-57.13,22.81-85.43
		C238.8,303.17,238.62,301.89,238.44,300.58L238.44,300.58z M163.09,192.33c39.71,9.7,72.31,37.95,87.54,75.88
		c0.13,0.33,0.51,0.5,0.84,0.37c0.04-0.02,0.08-0.03,0.11-0.06c5.01-3.17,9.96-6.44,14.81-9.87c0.38-0.27,0.53-0.77,0.36-1.2
		c-4.13-10.19-9.82-19.67-16.86-28.11l0,0c-21.29-25.65-53.38-39.82-86.68-38.29c-0.36,0.02-0.63,0.33-0.61,0.69
		C162.62,192.03,162.81,192.27,163.09,192.33z M233.04,278.89c-12.46-34.04-41.37-59.4-76.73-67.34c-0.35-0.08-0.7,0.14-0.78,0.49
		c-0.04,0.17-0.01,0.35,0.09,0.5c16.87,26.17,30.34,54.38,40.09,83.96c0.11,0.34,0.48,0.53,0.82,0.41c0.01,0,0.03-0.01,0.04-0.01
		c12.37-5.05,24.45-10.79,36.17-17.2C233.03,279.53,233.15,279.19,233.04,278.89z"/>
	<path class="st1" d="M154.3,402.95c-35.64-5.2-66.49-27.48-82.65-59.67c-0.15-0.32-0.02-0.71,0.31-0.86
		c0.09-0.04,0.18-0.06,0.27-0.06c8.03-0.11,15.99-0.47,23.91-1.07c0.27-0.02,0.53,0.13,0.64,0.38c1.47,3.32,3.09,6.58,4.85,9.78
		c11.84,21.5,32.03,38.79,53.1,50.21c0.32,0.23,0.39,0.68,0.16,0.99C154.76,402.85,154.54,402.96,154.3,402.95z M181.94,323.86
		c-20.55,6.84-41.67,11.83-63.1,14.91c-0.35,0.05-0.6,0.38-0.55,0.73c0.01,0.07,0.03,0.14,0.07,0.21c0.34,0.65,0.67,1.31,1.02,1.96
		c13.77,24.94,38.43,47.33,65.79,55.27c2.94,0.85,5.9,1.54,8.86,2.14c0.53,0.11,1.04-0.24,1.14-0.76c0.02-0.09,0.02-0.18,0.02-0.26
		c-2.1-24.88-6.25-49.54-12.42-73.73c-0.09-0.34-0.44-0.55-0.78-0.47C181.97,323.85,181.95,323.86,181.94,323.86z M89.55,320.66
		c-10.26-41.53,1.11-85.43,30.23-116.76c0.24-0.27,0.22-0.68-0.04-0.92c-0.2-0.18-0.49-0.22-0.74-0.1
		c-32.33,16.7-53.91,48.73-57.24,84.96l0,0c-1.02,11.15-0.28,22.39,2.21,33.31c0.13,0.56,0.62,0.96,1.2,0.96
		c7.99,0.06,15.91-0.15,23.79-0.64c0.36-0.02,0.63-0.32,0.61-0.68C89.57,320.75,89.56,320.71,89.55,320.66L89.55,320.66z
		 M110.07,318.94c0.09,0.31,0.39,0.51,0.71,0.47c22.28-2.83,44.23-7.86,65.52-15.01c0.34-0.11,0.52-0.48,0.41-0.82
		c-9.87-30.21-23.85-58.92-41.55-85.32c-0.2-0.3-0.61-0.38-0.9-0.18c-0.04,0.03-0.08,0.06-0.11,0.1
		C109.24,245.34,100.13,283.45,110.07,318.94z M342.48,225.32c15.09,0,15.46,8.22,15.46,16.01c0,10.29-4.22,12.77-8.33,14.65
		l-16.51,1.22v-31.89H342.48z M317.39,290.6l-9.09,2.58v5.95h33.79v-5.95l-8.98-2.58v-25.53h14.02c17.84,0,26.94-8.26,26.94-24.2
		c0-17.04-8.33-24.25-30.9-24.25h-34.64v6.41l8.87,2.58V290.6z M503.77,225.38c9.43,0,12.37,5.72,12.37,14.82
		c0,8.65-2.56,12.86-7.86,15.49l-16.7,1.12v-31.43L503.77,225.38z M519.85,299.13h23v-5.95l-9.86-3.26l-15.27-29.86
		c10.19-4.04,14.59-9.92,14.59-21.22c0-14.62-7.83-22.23-29.26-22.23h-36.16v6.41l8.98,2.58v64.99l-9.09,2.58v5.95h33.79v-5.95
		l-8.98-2.58V264h11.2L519.85,299.13z M586.2,225.38c17.88,0,22.09,10.68,22.09,34.13c0,29.78-13.98,31.1-22.09,31.1h-11.83v-65.23
		H586.2z M549.58,299.13h38.27c23.8,0,37.45-11.89,37.45-42.16c0-26.75-13.17-40.36-35.73-40.36h-39.88v6.41l8.87,2.58v65.12
		l-8.98,2.47L549.58,299.13z M717.53,216.63v6.41l8.86,2.58v65.12l-8.98,2.47v5.94h63.8l1.46-23.91h-8.78l-5.84,15.38h-25.84v-29.69
		h14.63l1.89,8.31h6.5v-25.02h-6.49l-1.89,8.01h-14.63v-26.87h24.72l4.72,15.95h8.9l-0.56-24.7L717.53,216.63z M450.82,225.61
		l8.98-2.58v-6.41h-29.08v6.41l8.87,2.58v46.26c0,12.91-8.34,18.22-17.4,18.22c-13.14,0-18.63-5.22-18.63-17.13v-47.33l8.98-2.58
		v-6.41h-33.68v6.41l8.98,2.58v47.33c0,19.89,13.64,27.42,32.5,27.42c20.49,0,30.48-8.68,30.48-29.61L450.82,225.61z M701.47,225.61
		l8.98-2.58v-6.41h-29.08v6.41l8.87,2.58v46.26c0,12.91-8.34,18.22-17.4,18.22c-13.14,0-18.63-5.22-18.63-17.13v-47.33l8.98-2.58
		v-6.41h-33.68v6.41l8.98,2.58v47.33c0,19.89,13.64,27.42,32.5,27.42c20.49,0,30.48-8.68,30.48-29.61L701.47,225.61z M393.54,319.12
		h-10.08v61.26h44.2v-10.08h-34.12V319.12z M520.88,370.31h24.82c4.28,0.09,7.83-3.31,7.92-7.59s-3.31-7.83-7.59-7.92
		c-0.11,0-0.22,0-0.33,0h-24.82V370.31z M541.43,344.72c4.28,0,7.76-3.47,7.76-7.76s-3.47-7.76-7.76-7.76h-20.55v15.52H541.43
		 M555.62,347.77c4.96,3.28,7.93,8.84,7.91,14.78c-0.01,9.85-7.99,17.82-17.84,17.83h-34.88v-61.26h30.63
		c9.85,0,17.84,7.98,17.84,17.83c0,3.91-1.28,7.71-3.65,10.81 M616.17,359.64l-11.83-21.58l-11.74,21.58H616.17z M604.33,317.09
		l34.66,63.29H627.5l-5.88-10.68h-34.58l-5.8,10.68h-11.5L604.33,317.09z M660.91,370.31v-51.18h-10.08v61.26h44.21v-10.08H660.91z
		 M336.79,359.6h20.28c-5.56,11.23-19.17,15.84-30.4,10.28c-11.23-5.56-15.84-19.17-10.28-30.4c5.56-11.23,19.17-15.84,30.4-10.28
		c4.02,1.99,7.36,5.12,9.6,9l8.83-5.1c-9.09-15.68-29.18-21.02-44.86-11.93c-15.68,9.09-21.02,29.18-11.93,44.86
		c9.09,15.68,29.18,21.02,44.86,11.93c10.14-5.88,16.37-16.72,16.36-28.44h-32.85L336.79,359.6z M464.78,373.36
		c13.3,0,22.64-10.18,22.64-23.77c0-13.59-9.34-23.77-22.64-23.77s-22.64,10.19-22.64,23.77S451.48,373.36,464.78,373.36
		 M464.78,382.51c-18.18-0.1-32.84-14.91-32.75-33.1c0.1-18.18,14.91-32.84,33.1-32.75c18.11,0.1,32.75,14.81,32.75,32.92
		c0.26,17.93-14.07,32.67-31.99,32.92C465.51,382.52,465.15,382.52,464.78,382.51 M712.58,370.37v1.24h-3.56v9.27h-1.42v-9.27h-3.56
		v-1.25L712.58,370.37z M713.85,370.37h2.05l3.02,8.9l3.01-8.9h2.03v10.53h-1.36v-6.22c0-0.21,0-0.57,0-1.07c0-0.5,0-1.03,0-1.6
		l-3.01,8.88h-1.42l-3.03-8.88v0.32c0,0.26,0,0.65,0.02,1.18c0.02,0.53,0.02,0.91,0.02,1.16v6.21h-1.31L713.85,370.37z"/>
</g>
</svg>
